<?xml version="1.0" encoding="UTF-8" standalone="no"?>
<!-- Created with Inkscape (http://www.inkscape.org/) -->

<svg
   width="512"
   height="512"
   viewBox="0 0 512 512"
   version="1.1"
   id="svg5"
   inkscape:version="1.2.2 (732a01da63, 2022-12-09)"
   sodipodi:docname="chef penguin.svg"
   inkscape:export-filename="chef penguin small icon.png"
   inkscape:export-xdpi="4.5"
   inkscape:export-ydpi="4.5"
   xmlns:inkscape="http://www.inkscape.org/namespaces/inkscape"
   xmlns:sodipodi="http://sodipodi.sourceforge.net/DTD/sodipodi-0.dtd"
   xmlns="http://www.w3.org/2000/svg"
   xmlns:svg="http://www.w3.org/2000/svg">
  <sodipodi:namedview
     id="namedview7"
     pagecolor="#505050"
     bordercolor="#eeeeee"
     borderopacity="1"
     inkscape:showpageshadow="0"
     inkscape:pageopacity="0"
     inkscape:pagecheckerboard="0"
     inkscape:deskcolor="#505050"
     inkscape:document-units="px"
     showgrid="false"
     inkscape:zoom="1.0697959"
     inkscape:cx="385.58758"
     inkscape:cy="282.76423"
     inkscape:window-width="1718"
     inkscape:window-height="1360"
     inkscape:window-x="1706"
     inkscape:window-y="1440"
     inkscape:window-maximized="0"
     inkscape:current-layer="layer6" />
  <defs
     id="defs2" />
  <g
     inkscape:groupmode="layer"
     id="layer2"
     inkscape:label="Background"
     sodipodi:insensitive="true">
    <rect
       style="fill:#3488e0;fill-opacity:1"
       id="rect4366"
       width="512"
       height="512"
       x="0"
       y="0" />
  </g>
  <g
     inkscape:groupmode="layer"
     id="layer5"
     inkscape:label="Penguin"
     transform="matrix(0.95611803,0,0,1,9.5236754,39)"
     sodipodi:insensitive="true">
    <g
       inkscape:groupmode="layer"
       id="layer4"
       inkscape:label="Body"
       style="display:inline;opacity:1">
      <path
         id="path11688"
         style="display:inline;fill:#2a2a2a;fill-opacity:1;stroke-width:1.09493"
         d="m 267.0505,63.203125 c -22.74977,0.77712 -38.60424,3.465265 -56.27615,17.386719 -48.67892,42.262866 -78.14824,32.399506 -134.715676,33.467916 -16.501616,0.44615 -23.259441,10.71504 -1.896079,21.95001 4.142972,2.41838 73.786755,26.27808 106.715875,65.15825 0.57086,1.28649 1.9242,2.98644 4.20197,5.16796 2.66235,3.49463 5.07769,7.15669 7.30902,10.92188 14.52943,34.74957 -12.78006,106.95279 -23.47342,132.68945 -1.49872,2.92915 -2.89591,6.02708 -4.09166,9.53321 0,0 -22.97181,67.52158 -36.81881,113.52148 H 487.39545 C 472.03015,309.69029 426.45553,178.32642 399.6076,135.3418 372.69094,86.251704 321.45473,64.691784 276.93952,63.203125 c -3.33863,-0.11165 -6.63906,-0.111017 -9.88902,0 z"
         class="UnoptimicedTransforms"
         sodipodi:nodetypes="scccccccccccss" />
    </g>
    <g
       inkscape:groupmode="layer"
       id="layer3"
       inkscape:label="Stomach"
       style="display:inline">
      <path
         id="path10959"
         style="display:inline;fill:#ececec;fill-opacity:1;stroke-width:1.27297"
         d="m 284.73267,301.99023 c -0.87758,0.004 -1.34209,0.0293 -1.34209,0.0293 l -0.006,0.0254 c -0.89197,-0.0205 -1.78581,-0.047 -2.67194,-0.0293 -14.02625,0.28088 -27.24752,5.42988 -37.32745,17.86719 C 219.34203,349.54871 199.10084,425.98725 188.33252,473 H 428.41876 C 403.96905,306.66054 297.89644,301.93155 284.73267,301.99023 Z" />
    </g>
  </g>
  <g
     inkscape:groupmode="layer"
     id="layer6"
     inkscape:label="Hat"
     transform="translate(-6.2558217,-5.3918866)"
     sodipodi:insensitive="true">
    <g
       id="g611"
       transform="matrix(-0.74695502,-0.05664995,0.05664995,-0.74695502,582.19383,218.67511)">
      <path
         style="fill:#ecffff;fill-opacity:1"
         d="m 250.1962,110.20893 c 0,0 -3.53648,-40.910178 13.44219,-57.174947 16.97867,-16.264769 141.97033,44.997027 160.74378,60.255887 18.77344,15.25887 -30.44648,93.41423 -36.07992,84.23522 -5.63345,-9.17901 -143.65407,-3.95112 -138.10605,-87.31616 z"
         id="path607"
         inkscape:label="bottom"
         sodipodi:nodetypes="csssc" />
      <path
         style="fill:#ecffff;fill-opacity:1;stroke-width:1.33494"
         d="m 354.36634,133.26278 c 0,0 61.28621,20.136 89.84429,45.65562 10.92798,9.76529 17.06366,20.31888 13.1393,30.83418 -6.72602,18.02228 -131.03175,2.17103 -233.18009,-32.97799 -102.14835,-35.14902 -62.3354,-142.96739 130.1965,-43.51181 z"
         id="path5257"
         sodipodi:nodetypes="csssc" />
      <path
         style="fill:#ecffff;fill-opacity:1;stroke-width:1.33494"
         d="m 457.34993,209.75258 c 0,0 -16.90408,62.53291 -136.21132,3.15639 -119.30726,-59.37652 32.14295,-41.89525 32.14295,-41.89525 z"
         id="path5259" />
    </g>
  </g>
  <g
     inkscape:groupmode="layer"
     id="layer7"
     inkscape:label="Apron"
     sodipodi:insensitive="true">
    <path
       style="fill:#685200;fill-opacity:1"
       d="m 158.93754,512 c 0,0 54.41442,-101.91134 47.08568,-143.19594 -7.32874,-41.28459 188.25553,-78.90411 215.67123,37.69863 C 449.11016,523.10543 440.36793,512 445.39059,512 c 5.02265,0 0,0 -286.45305,0 z"
       id="path2849"
       sodipodi:nodetypes="csssc" />
    <path
       style="fill:#685200;fill-opacity:1"
       d="m 206.02322,368.80406 c 0,0 -0.1014,-3.87565 -16.43143,-27.81434 -16.15819,-23.68678 4.31413,-27.13954 4.31413,-27.13954 0,0 22.08859,17.15451 25.21462,34.22751 3.12604,17.073 -13.09732,20.72637 -13.09732,20.72637 z"
       id="path5173"
       sodipodi:nodetypes="cscsc" />
    <path
       style="fill:#685200;fill-opacity:1"
       d="m 402.954,368.80406 c 0,0 46.2229,-26.23997 46.2229,-47.31757 0,-21.07759 -10.21637,-18.68551 -10.21637,-18.68551 0,0 -10.12917,27.50988 -57.0024,46.75648 -46.87322,19.2466 20.99587,19.2466 20.99587,19.2466 z"
       id="path5175"
       sodipodi:nodetypes="cscsc" />
  </g>
</svg>
