<?xml version="1.0" encoding="UTF-8" standalone="no"?>
<!-- Created with Inkscape (http://www.inkscape.org/) -->

<svg
   width="512"
   height="512"
   viewBox="0 0 512 512"
   version="1.1"
   id="svg5"
   inkscape:version="1.2.2 (732a01da63, 2022-12-09)"
   sodipodi:docname="new penguin logo.svg"
   inkscape:export-filename="new penguin logo.png"
   inkscape:export-xdpi="96"
   inkscape:export-ydpi="96"
   xmlns:inkscape="http://www.inkscape.org/namespaces/inkscape"
   xmlns:sodipodi="http://sodipodi.sourceforge.net/DTD/sodipodi-0.dtd"
   xmlns="http://www.w3.org/2000/svg"
   xmlns:svg="http://www.w3.org/2000/svg">
  <sodipodi:namedview
     id="namedview7"
     pagecolor="#505050"
     bordercolor="#eeeeee"
     borderopacity="1"
     inkscape:showpageshadow="0"
     inkscape:pageopacity="0"
     inkscape:pagecheckerboard="0"
     inkscape:deskcolor="#505050"
     inkscape:document-units="px"
     showgrid="false"
     inkscape:zoom="1.4142136"
     inkscape:cx="328.80465"
     inkscape:cy="408.35417"
     inkscape:window-width="1718"
     inkscape:window-height="1360"
     inkscape:window-x="1713"
     inkscape:window-y="1440"
     inkscape:window-maximized="0"
     inkscape:current-layer="layer4" />
  <defs
     id="defs2" />
  <g
     inkscape:groupmode="layer"
     id="layer2"
     inkscape:label="Background"
     sodipodi:insensitive="true">
    <rect
       style="fill:#3488e0;fill-opacity:1"
       id="rect4366"
       width="512"
       height="512"
       x="0"
       y="0" />
  </g>
  <g
     inkscape:label="Penguin Old"
     inkscape:groupmode="layer"
     id="layer1"
     sodipodi:insensitive="true"
     style="display:none;opacity:0.188841">
    <path
       style="fill:#333333;fill-opacity:1;stroke-width:0.891066"
       d="m 121.45025,512.38356 c 0,0 25.75776,-137.0806 70.99085,-171.00543 45.23311,-33.92483 -74.70754,-71.35036 -120.621609,-77.90145 -44.604865,-6.3643 -19.266822,-20.0899 23.87303,-40.20721 46.636419,-21.74786 90.466209,-57.16962 140.725209,-83.5556 50.25901,-26.38598 92.97916,-29.52717 139.46874,-0.62824 46.48958,28.89893 86.93414,223.87106 93.60741,241.87147 6.78817,18.31035 13.94603,37.69425 13.94603,37.69425 v 93.73221 z"
       id="path2749"
       sodipodi:nodetypes="cssssssccc" />
    <path
       style="fill:#f9f9f9;fill-opacity:1;stroke-width:0.891066"
       d="m 182.0755,341.94909 c 0,0 83.84072,-141.6716 72.94813,167.1112 -5.00875,141.98809 -143.93897,3.89422 -143.93897,3.89422 0,0 21.45618,-81.82681 70.99084,-171.00542 z"
       id="path2751"
       sodipodi:nodetypes="cscc" />
  </g>
  <g
     inkscape:groupmode="layer"
     id="layer5"
     inkscape:label="Penguin">
    <g
       inkscape:groupmode="layer"
       id="layer4"
       inkscape:label="Body"
       style="display:inline;opacity:1">
      <path
         id="path11688"
         style="display:inline;fill:#2a2a2a;fill-opacity:1;stroke-width:1.0626"
         d="m 256,90.298828 c -56.96683,0 -81.11523,22.759762 -81.11523,22.759762 -30.7688,20.55146 -30.58653,26.12995 -61.79493,34.49219 -7.48785,0.83128 -10.18843,3.64845 -41.626949,-0.002 -10.365693,-1.20358 -15.799687,0.1863 -18.798829,2.15625 -0.328566,0.14513 -0.668608,0.34328 -1.019531,0.60351 -7.574822,5.61719 -1.054687,13.83789 -1.054687,13.83789 l 0.144531,0.0391 c 2.602612,3.97045 9.865498,10.19712 30.113281,18.59961 0.567978,0.2357 1.185349,0.55719 1.763672,0.81054 1.119347,0.53454 2.362531,1.08834 3.556641,1.63672 18.042411,8.68028 40.007311,24.78572 57.181641,41.05274 15.9675,17.3224 15.67325,18.38174 18.08203,24.13281 v 0 c 0,0 8.98806,26.26596 -0.52734,52.03125 -0.88686,2.15635 -1.69205,4.21377 -2.73242,6.55664 -0.44031,0.95816 -0.89578,1.98457 -1.34571,2.96875 -1.1679,2.56041 -2.3601,5.14985 -3.70117,7.9082 -0.86928,1.788 -1.55355,3.39359 -2.08398,4.84766 -6.71788,15.0868 -13.51584,30.89824 -18.80664,45.19141 -6.63081,17.91277 8.49363,20.95932 26.15624,19.2871 L 184.34766,506.46289 199.10938,512 h 130.9121 131.47657 C 426.94449,173.63662 334.60156,119.43555 334.60156,119.43555 v 0.0332 C 316.84536,102.18077 291.99564,91.698669 256,90.298828 Z"
         sodipodi:nodetypes="cccscsccsccccccccscccccccccc" />
    </g>
    <g
       inkscape:groupmode="layer"
       id="layer3"
       inkscape:label="Stomach"
       style="display:inline">
      <path
         style="display:inline;fill:#ececec;fill-opacity:1;stroke-width:1.25765"
         d="m 91.238112,512 c 0,0 27.134628,-148.18617 61.887228,-192.11722 28.62201,-36.18133 83.19447,-10.68241 107.56364,16.9107 16.01304,18.13149 30.5087,82.91438 35.17314,101.47482 5.93765,23.62673 11.15602,49.8283 27.06963,73.7317"
         id="path10959"
         sodipodi:nodetypes="csssc" />
    </g>
  </g>
</svg>
